<mxfile host="app.diagrams.net" agent="Mozilla/5.0 (Windows NT 10.0; Win64; x64) AppleWebKit/537.36 (KHTML, like Gecko) Chrome/132.0.0.0 Safari/537.36 OPR/117.0.0.0" version="26.1.0">
  <diagram name="Page-1" id="udA-1HNr7EUduwr254f-">
    <mxGraphModel grid="1" page="1" gridSize="10" guides="1" tooltips="1" connect="1" arrows="1" fold="1" pageScale="1" pageWidth="850" pageHeight="1100" math="0" shadow="0">
      <root>
        <mxCell id="0" />
        <mxCell id="1" parent="0" />
        <mxCell id="27UbNU-doXRGgwfcJZeS-2" value="&lt;font style=&quot;font-size: 16px;&quot;&gt;BEGIN&lt;/font&gt;&lt;div&gt;&lt;font style=&quot;font-size: 16px;&quot;&gt;Input a, b, c&lt;/font&gt;&lt;/div&gt;&lt;div&gt;&lt;span style=&quot;font-size: 16px;&quot;&gt;IF a&amp;gt;b AND a&amp;gt;c&lt;/span&gt;&lt;/div&gt;&lt;div&gt;&lt;span style=&quot;font-size: 16px;&quot;&gt;&lt;span style=&quot;white-space: pre;&quot;&gt;&#x9;&lt;/span&gt;Output &quot; a lớn nhất&quot;&lt;br&gt;&lt;/span&gt;&lt;/div&gt;&lt;div&gt;&lt;span style=&quot;font-size: 16px;&quot;&gt;&lt;span style=&quot;white-space: pre;&quot;&gt;&#x9;&lt;/span&gt;ELSE IF b&amp;gt;c&lt;br&gt;&lt;/span&gt;&lt;/div&gt;&lt;div&gt;&lt;span style=&quot;font-size: 16px;&quot;&gt;&lt;span style=&quot;white-space: pre;&quot;&gt;&#x9;&lt;/span&gt;&lt;span style=&quot;white-space: pre;&quot;&gt;&#x9;&lt;/span&gt;Output &quot;b lớn nhất&quot;&lt;br&gt;&lt;/span&gt;&lt;/div&gt;&lt;div&gt;&lt;span style=&quot;font-size: 16px;&quot;&gt;&lt;span style=&quot;white-space: pre;&quot;&gt;&#x9;&lt;/span&gt;&lt;span style=&quot;white-space: pre;&quot;&gt;&#x9;&lt;/span&gt;ELSE Output &quot;c lớn nhất&quot;&lt;br&gt;&lt;/span&gt;&lt;/div&gt;&lt;div&gt;&lt;span style=&quot;font-size: 16px;&quot;&gt;END&lt;/span&gt;&lt;/div&gt;" style="text;html=1;align=left;verticalAlign=middle;whiteSpace=wrap;rounded=0;fillColor=default;" vertex="1" parent="1">
          <mxGeometry x="50" y="60" width="270" height="200" as="geometry" />
        </mxCell>
        <mxCell id="27UbNU-doXRGgwfcJZeS-6" style="edgeStyle=orthogonalEdgeStyle;rounded=0;orthogonalLoop=1;jettySize=auto;html=1;entryX=0.5;entryY=0;entryDx=0;entryDy=0;" edge="1" parent="1" source="27UbNU-doXRGgwfcJZeS-3" target="27UbNU-doXRGgwfcJZeS-5">
          <mxGeometry relative="1" as="geometry" />
        </mxCell>
        <mxCell id="27UbNU-doXRGgwfcJZeS-3" value="" style="rounded=1;whiteSpace=wrap;html=1;" vertex="1" parent="1">
          <mxGeometry x="370" y="80" width="120" height="60" as="geometry" />
        </mxCell>
        <mxCell id="27UbNU-doXRGgwfcJZeS-4" value="BEGIN" style="text;html=1;align=center;verticalAlign=middle;whiteSpace=wrap;rounded=0;" vertex="1" parent="1">
          <mxGeometry x="395" y="95" width="60" height="30" as="geometry" />
        </mxCell>
        <mxCell id="27UbNU-doXRGgwfcJZeS-9" style="edgeStyle=orthogonalEdgeStyle;rounded=0;orthogonalLoop=1;jettySize=auto;html=1;entryX=0.5;entryY=0;entryDx=0;entryDy=0;" edge="1" parent="1" source="27UbNU-doXRGgwfcJZeS-5" target="27UbNU-doXRGgwfcJZeS-8">
          <mxGeometry relative="1" as="geometry" />
        </mxCell>
        <mxCell id="27UbNU-doXRGgwfcJZeS-5" value="" style="shape=parallelogram;perimeter=parallelogramPerimeter;whiteSpace=wrap;html=1;fixedSize=1;" vertex="1" parent="1">
          <mxGeometry x="370" y="170" width="120" height="60" as="geometry" />
        </mxCell>
        <mxCell id="27UbNU-doXRGgwfcJZeS-7" value="Input a, b, c" style="text;html=1;align=center;verticalAlign=middle;whiteSpace=wrap;rounded=0;" vertex="1" parent="1">
          <mxGeometry x="395" y="190" width="65" height="20" as="geometry" />
        </mxCell>
        <mxCell id="27UbNU-doXRGgwfcJZeS-15" style="edgeStyle=orthogonalEdgeStyle;rounded=0;orthogonalLoop=1;jettySize=auto;html=1;entryX=0.5;entryY=0;entryDx=0;entryDy=0;" edge="1" parent="1" source="27UbNU-doXRGgwfcJZeS-8" target="27UbNU-doXRGgwfcJZeS-12">
          <mxGeometry relative="1" as="geometry" />
        </mxCell>
        <mxCell id="27UbNU-doXRGgwfcJZeS-8" value="" style="rhombus;whiteSpace=wrap;html=1;" vertex="1" parent="1">
          <mxGeometry x="360" y="260" width="140" height="80" as="geometry" />
        </mxCell>
        <mxCell id="27UbNU-doXRGgwfcJZeS-10" value="IF a&amp;gt;b AND a&amp;gt;c" style="text;html=1;align=center;verticalAlign=middle;whiteSpace=wrap;rounded=0;" vertex="1" parent="1">
          <mxGeometry x="380" y="285" width="100" height="30" as="geometry" />
        </mxCell>
        <mxCell id="27UbNU-doXRGgwfcJZeS-11" value="" style="shape=parallelogram;perimeter=parallelogramPerimeter;whiteSpace=wrap;html=1;fixedSize=1;" vertex="1" parent="1">
          <mxGeometry x="140" y="520" width="150" height="60" as="geometry" />
        </mxCell>
        <mxCell id="27UbNU-doXRGgwfcJZeS-12" value="" style="rhombus;whiteSpace=wrap;html=1;" vertex="1" parent="1">
          <mxGeometry x="520" y="380" width="160" height="80" as="geometry" />
        </mxCell>
        <mxCell id="27UbNU-doXRGgwfcJZeS-14" style="edgeStyle=orthogonalEdgeStyle;rounded=0;orthogonalLoop=1;jettySize=auto;html=1;entryX=0.558;entryY=0.017;entryDx=0;entryDy=0;entryPerimeter=0;" edge="1" parent="1" source="27UbNU-doXRGgwfcJZeS-8" target="27UbNU-doXRGgwfcJZeS-11">
          <mxGeometry relative="1" as="geometry">
            <Array as="points">
              <mxPoint x="224" y="300" />
            </Array>
          </mxGeometry>
        </mxCell>
        <mxCell id="27UbNU-doXRGgwfcJZeS-16" value="Đúng" style="text;html=1;align=center;verticalAlign=middle;whiteSpace=wrap;rounded=0;" vertex="1" parent="1">
          <mxGeometry x="230" y="270" width="60" height="30" as="geometry" />
        </mxCell>
        <mxCell id="27UbNU-doXRGgwfcJZeS-17" value="Sai" style="text;html=1;align=center;verticalAlign=middle;whiteSpace=wrap;rounded=0;" vertex="1" parent="1">
          <mxGeometry x="520" y="270" width="60" height="30" as="geometry" />
        </mxCell>
        <mxCell id="27UbNU-doXRGgwfcJZeS-18" value="Output &quot;a lớn nhất&quot;" style="text;html=1;align=center;verticalAlign=middle;whiteSpace=wrap;rounded=0;" vertex="1" parent="1">
          <mxGeometry x="160" y="530" width="110" height="30" as="geometry" />
        </mxCell>
        <mxCell id="27UbNU-doXRGgwfcJZeS-23" style="edgeStyle=orthogonalEdgeStyle;rounded=0;orthogonalLoop=1;jettySize=auto;html=1;entryX=0.5;entryY=0;entryDx=0;entryDy=0;exitX=1;exitY=1;exitDx=0;exitDy=0;" edge="1" parent="1" source="27UbNU-doXRGgwfcJZeS-26" target="27UbNU-doXRGgwfcJZeS-20">
          <mxGeometry relative="1" as="geometry">
            <Array as="points">
              <mxPoint x="460" y="420" />
            </Array>
          </mxGeometry>
        </mxCell>
        <mxCell id="27UbNU-doXRGgwfcJZeS-19" value="IF b&amp;gt;c" style="text;html=1;align=center;verticalAlign=middle;whiteSpace=wrap;rounded=0;" vertex="1" parent="1">
          <mxGeometry x="570" y="405" width="60" height="30" as="geometry" />
        </mxCell>
        <mxCell id="27UbNU-doXRGgwfcJZeS-20" value="Output &quot;b lớn nhất&quot;" style="shape=parallelogram;perimeter=parallelogramPerimeter;whiteSpace=wrap;html=1;fixedSize=1;" vertex="1" parent="1">
          <mxGeometry x="390" y="520" width="140" height="60" as="geometry" />
        </mxCell>
        <mxCell id="27UbNU-doXRGgwfcJZeS-21" value="Output &quot;c lớn nhất&quot;" style="shape=parallelogram;perimeter=parallelogramPerimeter;whiteSpace=wrap;html=1;fixedSize=1;" vertex="1" parent="1">
          <mxGeometry x="660" y="520" width="150" height="60" as="geometry" />
        </mxCell>
        <mxCell id="27UbNU-doXRGgwfcJZeS-24" style="edgeStyle=orthogonalEdgeStyle;rounded=0;orthogonalLoop=1;jettySize=auto;html=1;entryX=0.6;entryY=-0.017;entryDx=0;entryDy=0;entryPerimeter=0;" edge="1" parent="1" source="27UbNU-doXRGgwfcJZeS-12" target="27UbNU-doXRGgwfcJZeS-21">
          <mxGeometry relative="1" as="geometry">
            <Array as="points">
              <mxPoint x="750" y="420" />
            </Array>
          </mxGeometry>
        </mxCell>
        <mxCell id="27UbNU-doXRGgwfcJZeS-25" value="Sai" style="text;html=1;align=center;verticalAlign=middle;whiteSpace=wrap;rounded=0;" vertex="1" parent="1">
          <mxGeometry x="680" y="390" width="60" height="30" as="geometry" />
        </mxCell>
        <mxCell id="27UbNU-doXRGgwfcJZeS-26" value="Đúng" style="text;html=1;align=center;verticalAlign=middle;whiteSpace=wrap;rounded=0;" vertex="1" parent="1">
          <mxGeometry x="460" y="390" width="60" height="30" as="geometry" />
        </mxCell>
      </root>
    </mxGraphModel>
  </diagram>
</mxfile>
